<?xml version="1.0" encoding="utf-8"?>
<!-- Generator: Adobe Illustrator 27.5.0, SVG Export Plug-In . SVG Version: 6.00 Build 0)  -->
<svg version="1.1" id="レイヤー_1" xmlns="http://www.w3.org/2000/svg" xmlns:xlink="http://www.w3.org/1999/xlink" x="0px"
	 y="0px" viewBox="0 0 20 20" style="enable-background:new 0 0 20 20;" xml:space="preserve">
<style type="text/css">
	.st0{fill:#173C67;}
	.st1{fill:#FFFFFF;}
</style>
<path class="st0" d="M17.5,10c0,1-0.2,2-0.6,2.9c-0.4,0.9-0.9,1.7-1.6,2.4c-0.7,0.7-1.5,1.2-2.4,1.6C12,17.3,11,17.5,10,17.5
	c-1,0-2-0.2-2.9-0.6c-0.9-0.4-1.7-0.9-2.4-1.6c-0.7-0.7-1.2-1.5-1.6-2.4S2.5,11,2.5,10c0-1,0.2-2,0.6-2.9C3.5,6.2,4,5.4,4.7,4.7
	C5.4,4,6.2,3.5,7.1,3.1C8,2.7,9,2.5,10,2.5c1,0,2,0.2,2.9,0.6c0.9,0.4,1.7,0.9,2.4,1.6c0.7,0.7,1.2,1.5,1.6,2.4
	C17.3,8,17.5,9,17.5,10z"/>
<path class="st1" d="M16.7,10c0-1.9-0.6-3.4-1.9-4.7C13.4,4,11.9,3.3,10,3.3C8.1,3.3,6.6,4,5.3,5.3C4,6.6,3.3,8.1,3.3,10
	c0,1.9,0.6,3.4,1.9,4.7c1.3,1.3,2.9,1.9,4.7,1.9c1.9,0,3.4-0.6,4.7-1.9C16,13.4,16.7,11.9,16.7,10z"/>
<polygon class="st0" points="12.8,10 10.1,7.2 9.5,7.8 11.3,9.6 7.2,9.6 7.2,10.4 11.3,10.4 9.5,12.2 10.1,12.7 "/>
</svg>
