<?xml version="1.0" encoding="utf-8"?>
<!-- Generator: Adobe Illustrator 26.5.0, SVG Export Plug-In . SVG Version: 6.00 Build 0)  -->
<svg version="1.1" id="レイヤー_1" xmlns="http://www.w3.org/2000/svg" xmlns:xlink="http://www.w3.org/1999/xlink" x="0px"
	 y="0px" viewBox="0 0 560 366" style="enable-background:new 0 0 560 366;" xml:space="preserve">
<style type="text/css">
	.st0{fill-rule:evenodd;clip-rule:evenodd;fill:#FFFFFF;}
</style>
<path class="st0" d="M155.4,1H0v366h560V1H155.4z M155.4,1c-10.1,0-19.3,2.2-27.5,6.7c-8.1,4.5-14.6,11-19.5,19.8
	c-4.8,8.7-7.2,19.4-7.2,32.1c0,12.6,2.4,23.3,7.2,32c4.8,8.7,11.3,15.3,19.5,19.8c8.2,4.5,17.4,6.7,27.5,6.7
	c10.1,0,19.2-2.2,27.4-6.7c8.2-4.5,14.7-11.1,19.5-19.8c4.8-8.7,7.2-19.4,7.2-32.1s-2.4-23.4-7.2-32.1c-4.8-8.7-11.3-15.3-19.5-19.8
	C174.5,3.2,165.4,1,155.4,1z M178.4,59.6c0-6.8-0.9-12.6-2.7-17.3c-1.7-4.7-4.3-8.3-7.8-10.7c-3.4-2.5-7.6-3.7-12.6-3.7
	c-5,0-9.2,1.2-12.7,3.7c-3.4,2.4-6,6-7.8,10.7c-1.7,4.7-2.6,10.4-2.6,17.3s0.9,12.6,2.6,17.3c1.8,4.7,4.4,8.2,7.8,10.7
	c3.4,2.4,7.7,3.6,12.7,3.6c5,0,9.2-1.2,12.6-3.6c3.4-2.5,6-6,7.8-10.7C177.5,72.2,178.4,66.4,178.4,59.6z M221.9,116.6h42.8
	c11.3,0,21.1-2.3,29.4-6.8c8.3-4.6,14.7-11.1,19.2-19.6c4.5-8.5,6.8-18.7,6.8-30.6s-2.3-22.1-6.8-30.6c-4.5-8.5-11-15.1-19.3-19.6
	c-8.3-4.6-18.2-6.8-29.7-6.8h-42.4V116.6z M263.6,90.3h-11.5V28.8h10.6c5.8,0,10.7,0.9,14.7,2.7c4,1.8,7.1,5,9.1,9.4
	c2.1,4.5,3.2,10.7,3.2,18.6s-1,14.1-3.1,18.6c-2,4.5-5,7.6-8.9,9.4C273.8,89.4,269.1,90.3,263.6,90.3z M353.9,2.6h-33.7l40.9,78.2
	v35.9h30V80.7L432,2.6h-33.7l-21.7,46.3h-0.9L353.9,2.6z M1,2.6v114.1h52.4c8.1,0,15-1.4,20.9-4.2c5.8-2.8,10.3-6.6,13.5-11.5
	c3.2-4.9,4.8-10.4,4.8-16.7c0-5.4-1.2-10.1-3.5-14c-2.3-4-5.4-7.1-9.3-9.4c-3.9-2.3-8.3-3.5-13-3.7V56c4.3-0.9,8.1-2.5,11.3-4.8
	c3.2-2.3,5.7-5.2,7.5-8.7c1.8-3.5,2.7-7.3,2.7-11.5c0-5.8-1.5-10.8-4.5-15.1c-2.9-4.3-7.3-7.6-13.1-9.9c-5.8-2.3-12.9-3.5-21.4-3.5
	H1z M45.3,91.9H31.2V67.8h14.6c3.1,0,5.7,0.5,7.9,1.4c2.2,1,3.9,2.4,5.1,4.2c1.2,1.9,1.8,4.1,1.8,6.8c0,3.8-1.3,6.7-3.8,8.7
	C54.2,90.9,50.4,91.9,45.3,91.9z M43.6,48.7H31.2V26.8H44c3.8,0,6.9,0.9,9.3,2.8c2.5,1.9,3.7,4.5,3.7,8.1c0,2.3-0.6,4.3-1.7,6
	c-1.1,1.6-2.7,2.8-4.7,3.7C48.6,48.2,46.2,48.7,43.6,48.7z M476.1,362.8h-32.6l36.7-114.1h41.3l36.7,114.1h-32.6l-6.4-21.8h-36.7
	L476.1,362.8z M501.3,280.2l11.1,37.6h-23l11.1-37.6H501.3z M343.5,362.8h42.8c11.3,0,21.1-2.3,29.4-6.8
	c8.3-4.6,14.7-11.1,19.2-19.6c4.5-8.5,6.8-18.7,6.8-30.6c0-11.9-2.3-22.1-6.8-30.6c-4.5-8.5-11-15.1-19.3-19.6
	c-8.3-4.6-18.2-6.9-29.7-6.9h-42.4V362.8z M385.2,336.5h-11.5v-61.5h10.6c5.8,0,10.7,0.9,14.7,2.7c4,1.8,7.1,5,9.1,9.4
	c2.1,4.5,3.2,10.7,3.2,18.6s-1,14.1-3.1,18.6c-2,4.5-5,7.6-8.9,9.4C395.4,335.6,390.7,336.5,385.2,336.5z M330.7,248.8v114.1h-25.2
	l-40.2-59.9h-0.7v59.9h-30.2V248.8h25.6l39.6,59.7h0.9v-59.7H330.7z M214.8,337.9c4.8-8.7,7.2-19.4,7.2-32.1
	c0-12.7-2.4-23.4-7.2-32.1c-4.8-8.7-11.3-15.3-19.5-19.8c-8.2-4.5-17.3-6.7-27.4-6.7c-10.1,0-19.3,2.2-27.5,6.7
	c-8.2,4.5-14.6,11-19.5,19.8c-4.8,8.7-7.2,19.4-7.2,32.1c0,12.6,2.4,23.3,7.2,32c4.8,8.7,11.3,15.3,19.5,19.8
	c8.2,4.5,17.3,6.7,27.5,6.7c10.1,0,19.2-2.2,27.4-6.7C203.5,353.2,210,346.6,214.8,337.9z M188.3,288.5c1.8,4.7,2.7,10.4,2.7,17.3
	s-0.9,12.6-2.7,17.3c-1.7,4.7-4.3,8.2-7.8,10.7c-3.4,2.4-7.6,3.6-12.6,3.6c-5,0-9.2-1.2-12.7-3.6c-3.4-2.5-6-6-7.8-10.7
	c-1.7-4.7-2.6-10.5-2.6-17.3s0.9-12.6,2.6-17.3c1.8-4.7,4.4-8.3,7.8-10.7c3.4-2.5,7.7-3.7,12.7-3.7c5,0,9.2,1.2,12.6,3.7
	C183.9,280.3,186.5,283.8,188.3,288.5z M1,362.8V248.8h30.2v44.6h40v-44.6h30.2v114.1H71.2v-44.6h-40v44.6H1z M337.7,125.8v114.1
	h30.2V206h16.7c8.5,0,15.9-1.6,22.2-4.8c6.4-3.2,11.3-7.8,14.8-13.8c3.5-6,5.3-13.1,5.3-21.2c0-8.1-1.7-15.2-5.2-21.2
	c-3.4-6.1-8.3-10.7-14.5-14.1c-6.2-3.3-13.4-5-21.7-5H337.7z M367.9,181.9h10.6c3.6,0,6.6-0.6,9.1-1.9c2.5-1.3,4.5-3.1,5.8-5.5
	c1.4-2.4,2.1-5.2,2.1-8.4c0-3.3-0.7-6.1-2.1-8.4c-1.3-2.3-3.3-4.1-5.8-5.3c-2.5-1.3-5.5-1.9-9.1-1.9h-10.6V181.9z M325.2,182.8
	c0,12.7-2.4,23.4-7.2,32.1c-4.8,8.7-11.3,15.3-19.5,19.8c-8.2,4.5-17.3,6.7-27.4,6.7c-10.1,0-19.3-2.2-27.5-6.7
	c-8.1-4.5-14.6-11.1-19.5-19.8c-4.8-8.7-7.2-19.4-7.2-32c0-12.7,2.4-23.4,7.2-32.1c4.8-8.7,11.3-15.3,19.5-19.8
	c8.2-4.5,17.4-6.7,27.5-6.7c10.1,0,19.2,2.2,27.4,6.7c8.2,4.5,14.7,11,19.5,19.8C322.8,159.4,325.2,170.1,325.2,182.8z M294.1,182.8
	c0-6.8-0.9-12.6-2.7-17.3c-1.7-4.7-4.3-8.3-7.8-10.7c-3.4-2.4-7.6-3.7-12.6-3.7c-5,0-9.2,1.2-12.7,3.7c-3.4,2.4-6,6-7.8,10.7
	c-1.7,4.7-2.6,10.4-2.6,17.3c0,6.8,0.9,12.6,2.6,17.3c1.8,4.7,4.4,8.2,7.8,10.7c3.4,2.4,7.7,3.6,12.7,3.6c5,0,9.2-1.2,12.6-3.6
	c3.4-2.4,6-6,7.8-10.7C293.2,195.4,294.1,189.6,294.1,182.8z M104.2,125.8v114.1h30.2v-44.6h40v44.6h30.2V125.8h-30.2v44.6h-40
	v-44.6H104.2z M63.8,161.4c-0.3-3.7-1.6-6.6-4.1-8.7c-2.4-2.1-6-3.1-10.9-3.1c-3.1,0-5.7,0.4-7.7,1.2c-2,0.7-3.4,1.8-4.3,3.1
	c-0.9,1.3-1.4,2.8-1.5,4.5c-0.1,1.4,0.2,2.6,0.7,3.7c0.6,1.1,1.5,2.1,2.7,3c1.2,0.9,2.8,1.6,4.7,2.3c1.9,0.7,4.2,1.3,6.8,1.9l9.1,2
	c6.2,1.3,11.4,3.1,15.8,5.3c4.4,2.2,8,4.8,10.8,7.7c2.8,2.9,4.8,6.2,6.1,9.9c1.3,3.7,2,7.7,2.1,12c0,7.5-1.9,13.8-5.5,19
	c-3.6,5.2-8.8,9.2-15.5,11.9c-6.7,2.7-14.8,4.1-24.2,4.1c-9.7,0-18.1-1.5-25.3-4.4c-7.2-2.9-12.7-7.4-16.7-13.5
	c-3.9-6.1-5.9-14-6-23.5h28.7c0.2,3.5,1,6.4,2.6,8.8c1.5,2.4,3.7,4.2,6.4,5.4c2.8,1.2,6.1,1.8,9.9,1.8c3.2,0,5.9-0.4,8.1-1.2
	c2.2-0.8,3.8-1.9,4.9-3.4c1.1-1.4,1.7-3.1,1.7-5c0-1.7-0.6-3.3-1.7-4.6c-1.1-1.3-2.8-2.5-5.2-3.6c-2.4-1.1-5.7-2.1-9.8-3l-11.1-2.4
	c-9.9-2.2-17.6-5.8-23.3-11c-5.7-5.2-8.5-12.2-8.4-21.1c0-7.2,1.8-13.6,5.7-19c3.8-5.5,9.1-9.7,15.9-12.8c6.8-3,14.6-4.6,23.4-4.6
	c9,0,16.8,1.5,23.3,4.6c6.6,3.1,11.6,7.4,15.2,13c3.6,5.6,5.4,12.1,5.4,19.5H63.8z"/>
<rect y="0.1" class="st0" width="560" height="2"/>
</svg>
